# xmcd CD database file
#
# Track frame offsets:
#	150
#	23814
#	49361
#	72973
#
# Disc length: 1311 seconds
#
# Revision: 2
# Processed by: cddbd v1.5.2PL0 Copyright (c) Steve Scherf et al.
# Submitted via: CDex 1.60beta1-cs1
#
DISCID=32051d04
DTITLE=西脇唯 - EVERLASTING WISH II
DYEAR=2003
DGENRE=JPop
TTITLE0=After Tears…
TTITLE1=ニライ・カナイ〜幸福が見える場所〜
TTITLE2=After Tears… (Back Track)
TTITLE3=ニライ・カナイ〜幸福が見える場所〜 (Back Track)
EXTD=YEAR: 2003
EXTT0=
EXTT1=
EXTT2=
EXTT3=
PLAYORDER=
